<svg xmlns="http://www.w3.org/2000/svg" width="48" height="48" viewBox="0 0 48 48">
  <!-- SiteSync PM favicon — isometric cube simplified -->
  <!-- Top hexagon face -->
  <path d="M24 4 L40 13 L40 18 L24 27 L8 18 L8 13 Z" fill="#808080"/>
  <!-- Orange chevron accent -->
  <path d="M8 18 L24 27 L40 18 L40 22 L24 31 L8 22 Z" fill="#F47820"/>
  <!-- Bottom front face -->
  <path d="M8 22 L24 31 L24 44 L8 35 Z" fill="#6B6B6B"/>
  <!-- Bottom right face -->
  <path d="M24 31 L40 22 L40 35 L24 44 Z" fill="#999999"/>
  <!-- Inner S cutout highlights -->
  <path d="M14 14 L24 9 L34 14 L34 16 L24 21 L14 16 Z" fill="#FFFFFF" opacity="0.2"/>
  <path d="M14 28 L24 33 L24 38 L14 33 Z" fill="#FFFFFF" opacity="0.15"/>
  <path d="M24 33 L34 28 L34 33 L24 38 Z" fill="#FFFFFF" opacity="0.1"/>
</svg>
